# xmcd CD database file
#
# Track frame offsets:
#	150
#	20849
#	43862
#	66797
#	89252
#	113938
#	137255
#	158381
#	181426
#	204273
#	227173
#	247667
#	267651
#	288348
#	309445
#
# Disc length: 4481 seconds
#
# Revision: 0
# Processed by: cddbd v1.5.2PL0 Copyright (c) Steve Scherf et al.
# Submitted via: CDex 1.79
#
DISCID=c8117f0f
DTITLE=Victor Manuelle - The Essential CD 2
DYEAR=2007
DGENRE=Salsa
TTITLE0=El tonto que no te olvida
TTITLE1=Dile a ella
TTITLE2=Apiadate de mi
TTITLE3=Se me rompe el alma
TTITLE4=Volveras
TTITLE5=Asi es la mujer
TTITLE6=Si la ves
TTITLE7=Hay que poner el alma
TTITLE8=Que tean dicho
TTITLE9=He tratado
TTITLE10=De que me acusas
TTITLE11=Poco Hombre
TTITLE12=Esta vez con mas ganas
TTITLE13=Traigo una pena
TTITLE14=Megamix 2013
EXTD=YEAR: 2007
EXTT0=
EXTT1=
EXTT2=
EXTT3=
EXTT4=
EXTT5=
EXTT6=
EXTT7=
EXTT8=
EXTT9=
EXTT10=
EXTT11=
EXTT12=
EXTT13=
EXTT14=
PLAYORDER=
